<svg xmlns="http://www.w3.org/2000/svg" xmlns:xlink="http://www.w3.org/1999/xlink" x="0px" y="0px"
	 viewBox="0 0 512 512" style="enable-background:new 0 512 512 512;" fill="#ffffff">
    <g>
	   <g>
           <path d="M499.693,324.665L290.917,117.6c-18.825-18.824-51.338-18.824-68.451,0L13.69,324.665C5.133,334.932,0,346.912,0,360.602
            c0,13.69,5.133,25.67,13.69,34.226c8.557,8.556,22.246,13.69,34.226,13.69c11.979,0,25.67-5.133,34.226-13.69l174.55-174.55
            l172.839,172.84c18.825,18.824,51.338,18.824,68.451,0c8.557-8.557,13.69-22.246,13.69-34.226
			C513.383,346.912,508.25,333.221,499.693,324.665z"/>
	   </g>
    </g>
</svg>
